
        <svg xmlns="http://www.w3.org/2000/svg" xmlns:xlink="http://www.w3.org/1999/xlink" version="1.1" width="3162.02976825975" 
        height="491.9215889308488" viewBox="0 0 3162.02976825975 491.9215889308488">
			<rect fill="#055aa8" width="3162.02976825975" height="491.9215889308488"/>
			<g transform="scale(8.101488412987502) translate(10, 10)">
				<defs id="SvgjsDefs4440"></defs><g id="SvgjsG4441" featureKey="symbolFeature-0" transform="matrix(0.8890807878093945,0,0,0.8890807878093945,-1.8892966740949633,-1.8670697815837554)" fill="#cbb26a"><path xmlns="http://www.w3.org/2000/svg" d="M3.4,47.9c0.3,0,0.6-0.1,0.9-0.4l18.6-18.6c2.5,2.1,5.5,3.1,8.6,3.1c3.4,0,6.9-1.3,9.5-3.9l6.5-6.5c0.4-0.4,0.5-0.9,0.3-1.4  c-0.2-0.5-0.6-0.8-1.2-0.8h-4.3c-0.7,0-1.2,0.6-1.2,1.2c0,0.7,0.6,1.2,1.2,1.2h1.3l-4.3,4.3c-4,4-10.3,4.2-14.6,0.8L40.7,11  l-0.4,4.5c-0.1,0.7,0.4,1.3,1.1,1.4c0,0,0.1,0,0.1,0c0.6,0,1.2-0.5,1.2-1.1l0.7-7.9c0,0,0-0.1,0-0.1c0,0,0-0.1,0-0.1  c0-0.1,0-0.3-0.1-0.4c0,0,0,0,0,0c-0.1-0.1-0.1-0.3-0.3-0.4c-0.1-0.1-0.3-0.2-0.4-0.3c0,0,0,0,0,0c-0.1-0.1-0.3-0.1-0.4-0.1  c0,0,0,0-0.1,0c0,0-0.1,0-0.1,0l-7.9,0.7c-0.7,0.1-1.2,0.7-1.1,1.4c0.1,0.7,0.7,1.2,1.4,1.1L39,9.3L22.9,25.3  c-3.4-4.3-3.1-10.6,0.8-14.6l4.3-4.3v1.3c0,0.7,0.6,1.3,1.2,1.3c0.7,0,1.2-0.6,1.2-1.3V3.4c0-0.5-0.3-1-0.8-1.2  c-0.5-0.2-1-0.1-1.4,0.3L22,9c-5,5-5.2,12.8-0.8,18.1L2.5,45.7C2,46.2,2,47,2.5,47.5C2.8,47.7,3.1,47.9,3.4,47.9z"></path></g><g id="SvgjsG4442" featureKey="nameFeature-0" transform="matrix(0.6538604354939894,0,0,0.6538604354939894,59.69227920695826,4.121389166429485)" fill="#f6f7f7"><path d="M16.56 40.32 c-4 0 -7.72 -1.56 -10.32 -4.12 c-1.28 -1.28 -2.32 -2.84 -3.08 -4.68 c-0.76 -1.88 -1.16 -3.88 -1.16 -6 c0 -2.16 0.4 -4.2 1.2 -6.08 s1.84 -3.48 3.16 -4.76 c2.68 -2.6 6.4 -4.16 10.32 -4.16 c3.08 0 5.88 0.92 7.76 2.24 c0.96 0.64 1.8 1.4 2.56 2.24 c1.48 1.72 2.28 3.44 2.72 5.12 l-2.92 1.04 c-0.24 -0.96 -0.64 -2 -1.72 -3.52 c-0.56 -0.76 -1.16 -1.44 -1.88 -2.04 s-1.64 -1.12 -2.8 -1.52 c-1.16 -0.44 -2.4 -0.64 -3.8 -0.64 c-3.04 0 -5.96 1.24 -8 3.28 c-2.08 2.08 -3.4 5.16 -3.4 8.6 c0 2.28 0.48 4.36 1.48 6.2 c0.96 1.84 2.32 3.28 4.12 4.32 c1.72 1.04 3.68 1.56 5.84 1.56 c2.68 0 5 -0.92 6.4 -2.04 c0.72 -0.56 1.36 -1.2 1.92 -2 c0.56 -0.76 0.96 -1.44 1.24 -2 c0.24 -0.56 0.48 -1.16 0.68 -1.76 l2.92 1.04 c-0.44 1.56 -1.2 3.16 -2.68 4.96 c-0.72 0.88 -1.6 1.68 -2.52 2.36 c-1.92 1.36 -4.84 2.36 -8.04 2.36 z M62.56 25.36 c0 2.76 -0.64 5.28 -1.88 7.56 c-1.28 2.28 -3.04 4.08 -5.28 5.4 c-2.28 1.32 -4.76 2 -7.56 2 c-2.04 0 -3.96 -0.4 -5.8 -1.16 c-1.8 -0.76 -3.36 -1.8 -4.64 -3.16 c-1.28 -1.28 -2.28 -2.84 -3.04 -4.68 c-0.72 -1.84 -1.12 -3.76 -1.12 -5.8 c0 -2.76 0.64 -5.28 1.92 -7.56 c1.24 -2.28 3 -4.12 5.28 -5.44 c2.24 -1.32 4.76 -1.96 7.52 -1.96 c2.04 0 3.96 0.36 5.8 1.12 c1.8 0.8 3.36 1.84 4.64 3.12 c1.28 1.36 2.32 2.92 3.04 4.72 c0.76 1.84 1.12 3.76 1.12 5.84 z M59.400000000000006 25.52 c0 -3.28 -1.2 -6.32 -3.2 -8.52 s-5 -3.6 -8.36 -3.6 c-2.16 0 -4.12 0.56 -5.88 1.6 c-1.76 1.12 -3.12 2.56 -4.08 4.36 c-0.96 1.84 -1.44 3.84 -1.44 6 c0 3.24 1.2 6.32 3.2 8.48 c2 2.2 5 3.6 8.32 3.6 c2.16 0 4.12 -0.56 5.88 -1.64 c1.8 -1.04 3.16 -2.52 4.12 -4.32 s1.44 -3.8 1.44 -5.96 z M90.08 40 l-3.2 -7.44 l-15.88 0 l-3.2 7.44 l-3.12 0 l12.56 -29.16 l3.48 0 l12.6 29.16 l-3.24 0 z M85.72 29.759999999999998 l-6.8 -15.76 l-6.76 15.76 l13.56 0 z M105.56 40.28 c-2.76 0 -5.4 -1.04 -7.12 -2.56 c-1.8 -1.56 -2.96 -3.64 -3.2 -5.68 l2.88 -0.8 c0.32 1.72 1.2 3.16 2.64 4.36 c1.4 1.2 3 1.8 4.8 1.8 c1.68 0 3.24 -0.4 4.48 -1.28 c1.24 -0.84 2.04 -2.28 2.04 -4.04 c0 -2.04 -1.08 -3.36 -2.44 -4.16 c-0.96 -0.56 -1.8 -0.8 -2.76 -1 l-3.84 -0.76 c-0.8 -0.16 -1.64 -0.44 -2.56 -0.84 c-0.92 -0.44 -1.72 -0.96 -2.4 -1.64 c-1.36 -1.32 -2.04 -3 -2.04 -5.04 c0 -1.6 0.44 -3.04 1.32 -4.28 c0.88 -1.28 2 -2.2 3.4 -2.88 c1.4 -0.64 2.88 -0.96 4.52 -0.96 c6.28 0 9.04 3.88 9.64 7 l-2.8 0.88 c-0.48 -2.08 -2.36 -5.04 -6.88 -5.04 c-3.12 -0.08 -6.16 2.12 -6.12 5.16 c0 2.24 1.4 4.04 4.24 4.6 l3.68 0.72 c2.48 0.48 4.4 1.32 5.68 2.56 c0.88 0.8 1.52 1.72 1.92 2.68 c0.4 1 0.6 1.88 0.6 2.68 c0.04 5.12 -4.28 8.64 -9.68 8.52 z M130.92 13.719999999999999 l0 26.28 l-3.04 0 l0 -26.28 l-9.76 0 l0 -2.88 l22.56 0 l0 2.88 l-9.76 0 z M167 40 l-3.2 -7.44 l-15.88 0 l-3.2 7.44 l-3.12 0 l12.56 -29.16 l3.48 0 l12.6 29.16 l-3.24 0 z M162.64 29.759999999999998 l-6.8 -15.76 l-6.76 15.76 l13.56 0 z M174.39999999999998 40 l0 -29.16 l3.08 0 l0 26.28 l13.84 0 l0 2.88 l-16.92 0 z M225 10.84 l3.08 0 l0 17.76 c0 3.68 -1 6.56 -2.88 8.6 c-1.92 2.04 -4.64 3.08 -8.12 3.08 c-3.44 0 -6.16 -1.04 -8.04 -3.12 c-1.92 -2.08 -2.88 -4.84 -2.88 -8.36 l0 -17.96 l3.04 0 l0 17.8 c0 3.08 0.88 5.44 2.32 6.76 c1.48 1.36 3.36 2 5.72 2 c2.48 0 4.4 -0.72 5.76 -2.24 c1.32 -1.52 2 -3.6 2 -6.36 l0 -17.96 z M245.04 28.6 l-6.2 0 l0 11.4 l-3.08 0 l0 -29.16 l9.76 0 c7.12 -0.04 10.24 4.24 10.24 8.76 c0 2.52 -0.96 4.72 -2.68 6.36 c-1.76 1.64 -4.6 2.64 -8.04 2.64 z M245.28 13.719999999999999 l-6.44 0 l0 12.04 l6.28 0 c2.6 0 4.64 -0.76 5.8 -1.96 c1.16 -1.16 1.72 -2.6 1.72 -4.12 c0 -2.84 -1.64 -5.96 -7.36 -5.96 z M277.96 28.6 l-6.2 0 l0 11.4 l-3.08 0 l0 -29.16 l9.76 0 c7.12 -0.04 10.24 4.24 10.24 8.76 c0 2.52 -0.96 4.72 -2.68 6.36 c-1.76 1.64 -4.6 2.64 -8.04 2.64 z M278.2 13.719999999999999 l-6.44 0 l0 12.04 l6.28 0 c2.6 0 4.64 -0.76 5.8 -1.96 c1.16 -1.16 1.72 -2.6 1.72 -4.12 c0 -2.84 -1.64 -5.96 -7.36 -5.96 z M315.52 40 l-3.2 -7.44 l-15.88 0 l-3.2 7.44 l-3.12 0 l12.56 -29.16 l3.48 0 l12.6 29.16 l-3.24 0 z M311.16 29.759999999999998 l-6.8 -15.76 l-6.76 15.76 l13.56 0 z M344.28 40 l-3.72 0 l-8.64 -11.8 l-5.92 0 l0 11.8 l-3.08 0 l0 -29.16 l10.12 0 c3.44 0 6.2 0.96 7.8 2.56 s2.44 3.6 2.44 5.96 c0 4.92 -3.68 7.76 -8 8.32 z M326 13.719999999999999 l0 11.68 l6.76 0 c2.56 0 4.56 -0.72 5.72 -1.88 c1.12 -1.12 1.68 -2.52 1.68 -4.08 c0 -2.88 -1.76 -5.72 -7.32 -5.72 l-6.84 0 z M359.28000000000003 13.719999999999999 l0 26.28 l-3.04 0 l0 -26.28 l-9.76 0 l0 -2.88 l22.56 0 l0 2.88 l-9.76 0 z M394.64000000000004 10.84 l3 0 l0 29.16 l-3.32 0 l-17.4 -24.8 l0 24.8 l-3.04 0 l0 -29.16 l3.56 0 l17.2 24.52 l0 -24.52 z M405.76000000000005 40 l0 -29.16 l18.24 0 l0 2.84 l-15.16 0 l0 10.08 l13.88 0 l0 2.84 l-13.88 0 l0 10.56 l15.32 0 l0 2.84 l-18.4 0 z M451.84000000000003 40 l-3.72 0 l-8.64 -11.8 l-5.92 0 l0 11.8 l-3.08 0 l0 -29.16 l10.12 0 c3.44 0 6.2 0.96 7.8 2.56 s2.44 3.6 2.44 5.96 c0 4.92 -3.68 7.76 -8 8.32 z M433.56000000000006 13.719999999999999 l0 11.68 l6.76 0 c2.56 0 4.56 -0.72 5.72 -1.88 c1.12 -1.12 1.68 -2.52 1.68 -4.08 c0 -2.88 -1.76 -5.72 -7.32 -5.72 l-6.84 0 z M465.36000000000007 40.28 c-2.76 0 -5.4 -1.04 -7.12 -2.56 c-1.8 -1.56 -2.96 -3.64 -3.2 -5.68 l2.88 -0.8 c0.32 1.72 1.2 3.16 2.64 4.36 c1.4 1.2 3 1.8 4.8 1.8 c1.68 0 3.24 -0.4 4.48 -1.28 c1.24 -0.84 2.04 -2.28 2.04 -4.04 c0 -2.04 -1.08 -3.36 -2.44 -4.16 c-0.96 -0.56 -1.8 -0.8 -2.76 -1 l-3.84 -0.76 c-0.8 -0.16 -1.64 -0.44 -2.56 -0.84 c-0.92 -0.44 -1.72 -0.96 -2.4 -1.64 c-1.36 -1.32 -2.04 -3 -2.04 -5.04 c0 -1.6 0.44 -3.04 1.32 -4.28 c0.88 -1.28 2 -2.2 3.4 -2.88 c1.4 -0.64 2.88 -0.96 4.52 -0.96 c6.28 0 9.04 3.88 9.64 7 l-2.8 0.88 c-0.48 -2.08 -2.36 -5.04 -6.88 -5.04 c-3.12 -0.08 -6.16 2.12 -6.12 5.16 c0 2.24 1.4 4.04 4.24 4.6 l3.68 0.72 c2.48 0.48 4.4 1.32 5.68 2.56 c0.88 0.8 1.52 1.72 1.92 2.68 c0.4 1 0.6 1.88 0.6 2.68 c0.04 5.12 -4.28 8.64 -9.68 8.52 z"></path></g>
			</g>
		</svg>
	